<?xml version="1.0" encoding="utf-8"?>
<!-- Generator: Adobe Illustrator 22.1.0, SVG Export Plug-In . SVG Version: 6.00 Build 0)  -->
<svg xmlns="http://www.w3.org/2000/svg" xmlns:xlink="http://www.w3.org/1999/xlink" version="1.1" id="Layer_1" x="0px" y="0px" viewBox="0 0 512 512" style="enable-background:new 0 0 512 512;" xml:space="preserve" width="512" height="512">
<style type="text/css">
	.st0{fill:#DB9C2E;}
	.st1{fill:#BF6C0D;}
	.st2{fill:#F9BB32;}
	.st3{fill:#FCE575;}
	.st4{fill:#FFD551;}
	.st5{fill:#FFC34C;}
	.st6{fill:#FFDF74;}
	.st7{fill:#FFA730;}
	.st8{fill:#FFF4C1;}
	.st9{fill:#FFEACF;}
	.st10{fill:#FF624B;}
	.st11{fill:#CCC033;}
	.st12{fill:#8C4C17;}
	.st13{fill:#FFD59A;}
	.st14{fill:#99AF17;}
	.st15{fill:#FCF9DE;}
	.st16{fill:#E58D23;}
	.st17{fill:#A56021;}
	.st18{fill:#FF4B34;}
	.st19{fill:#FF9079;}
	.st20{fill:#EACF32;}
	.st21{fill:#FFB74B;}
	.st22{fill:#FCDA4F;}
	.st23{fill:#FFEA63;}
</style>
<g>
	<g>
		<g>
			<path class="st8" d="M456.397,221.573L275.824,40.549c-10.94-10.967-28.707-10.967-39.647,0L55.603,221.573H55.5v238.103     c0,11.046,8.954,20,20,20h361c11.046,0,20-8.954,20-20V221.573H456.397z"/>
		</g>
	</g>
	<g>
		<g>
			<path class="st6" d="M95.5,459.676V221.573h0.103L276,40.726l-0.176-0.177c-10.94-10.967-28.707-10.967-39.647,0L55.603,221.573     H55.5v238.103c0,11.046,8.954,20,20,20h40C104.454,479.676,95.5,470.722,95.5,459.676z"/>
		</g>
	</g>
	<g>
		<g>
			<path class="st13" d="M107.367,421.241h297.266V89.113c0-8.261-6.756-14.958-15.09-14.958H122.457     c-8.334,0-15.09,6.697-15.09,14.958L107.367,421.241L107.367,421.241L107.367,421.241z"/>
		</g>
	</g>
	<g>
		<g>
			<path class="st17" d="M356.673,326.04H176.512c-6.585,0-11.923,4.029-11.923,9s5.338,9,11.923,9h180.161     c6.585,0,11.923-4.029,11.923-9S363.258,326.04,356.673,326.04z"/>
		</g>
	</g>
	<g>
		<g>
			<path class="st17" d="M356.673,281.04H176.512c-6.585,0-11.923,4.029-11.923,9s5.338,9,11.923,9h180.161     c6.585,0,11.923-4.029,11.923-9S363.258,281.04,356.673,281.04z"/>
		</g>
	</g>
	<g>
		<g>
			<path class="st17" d="M356.673,233.04H176.512c-6.585,0-11.923,4.029-11.923,9s5.338,9,11.923,9h180.161     c6.585,0,11.923-4.029,11.923-9S363.258,233.04,356.673,233.04z"/>
		</g>
	</g>
	<g>
		<g>
			<path class="st17" d="M356.673,185.04H176.512c-6.585,0-11.923,4.029-11.923,9s5.338,9,11.923,9h180.161     c6.585,0,11.923-4.029,11.923-9S363.258,185.04,356.673,185.04z"/>
		</g>
	</g>
	<g>
		<g>
			<path class="st17" d="M273.87,137.04H171.373c-3.746,0-6.783,4.029-6.783,9s3.037,9,6.783,9H273.87c3.746,0,6.783-4.029,6.783-9     S277.617,137.04,273.87,137.04z"/>
		</g>
	</g>
	<g>
		<g>
			<path class="st21" d="M154.041,421.241L154.041,421.241l0-332.128c0-8.261,6.756-14.958,15.09-14.958h-46.674     c-8.334,0-15.09,6.697-15.09,14.958v332.128l0,0H154.041z"/>
		</g>
	</g>
	<g>
		<g>
			<path class="st6" d="M256,357.176l-200.5-122.5v225c0,11.046,8.954,20,20,20h361c11.046,0,20-8.954,20-20v-225L256,357.176z"/>
		</g>
	</g>
	<g>
		<g>
			<path class="st9" d="M389.667,187c-3.313,0-6-2.687-6-6v-71.333c0-3.313,2.687-6,6-6s6,2.687,6,6V181     C395.667,184.313,392.98,187,389.667,187z"/>
		</g>
	</g>
	<g>
		<g>
			<path class="st8" d="M436.699,425.333c-3.313,0-6-2.687-6-6V284.04c0-3.313,2.687-6,6-6s6,2.687,6,6v135.294     C442.699,422.647,440.013,425.333,436.699,425.333z"/>
		</g>
	</g>
	<g>
		<g>
			<g>
				<path class="st4" d="M95.5,459.676V259.115l-40-24.439v225c0,11.046,8.954,20,20,20h40      C104.454,479.676,95.5,470.722,95.5,459.676z"/>
			</g>
		</g>
	</g>
	<g>
		<g>
			<path class="st5" d="M67.085,470.72l179.741-138.952c5.403-4.177,12.945-4.177,18.348,0L444.915,470.72     c3.772,2.916,1.71,8.956-3.058,8.956H70.143C65.375,479.676,63.312,473.637,67.085,470.72z"/>
		</g>
	</g>
	<g>
		<g>
			<path class="st2" d="M95.5,459.676v-10.923l-28.415,21.967c-2.195,1.697-2.405,4.446-1.265,6.453     c2.869,1.591,6.167,2.503,9.68,2.503h40C104.454,479.676,95.5,470.722,95.5,459.676z"/>
		</g>
	</g>
	<g>
		<g>
			<circle class="st2" cx="131.315" cy="454.052" r="15.815"/>
		</g>
	</g>
	<g>
		<g>
			<circle class="st4" cx="115.5" cy="305.855" r="15.815"/>
		</g>
	</g>
	<g>
		<g>
			<circle class="st21" cx="180.405" cy="102.385" r="15.815"/>
		</g>
	</g>
</g>
</svg>
